<svg id="Layer_1" enable-background="new 0 0 512 512" viewBox="0 0 512 512" xmlns="http://www.w3.org/2000/svg"><g id="Layer_2_00000036940770146871479630000009900907393261726642_"><g id="star_circle"><path d="m256 512c-141.4 0-256-114.7-256-256 0-67.9 27-133 75-181 101.4-98.5 263.5-96.1 362 5.3 96.5 99.3 96.5 257.4 0 356.7-47.9 48.2-113.1 75.2-181 75zm0-479.2c-123.1 0-223.2 100.1-223.2 223.2s100.1 223.2 223.2 223.2 223.2-100.1 223.2-223.2-100.1-223.2-223.2-223.2zm75.3 374c-5.4 0-10.8-1.3-15.6-3.9l-59.7-31.9-59.6 31.8c-16.2 8.6-36.3 2.5-44.9-13.7-3.4-6.5-4.7-13.9-3.4-21.1l11.5-68.1-48.6-48.1c-13-12.9-13.1-33.9-.2-46.9 5-5.1 11.6-8.4 18.7-9.5l66.8-9.9 30-61.6c8-16.5 27.9-23.4 44.4-15.4 6.7 3.3 12.1 8.7 15.4 15.4l29.9 61.6 66.8 9.9c18.1 2.7 30.6 19.6 27.9 37.7-1.1 7.1-4.4 13.6-9.5 18.7l-48.6 48.1 11.4 68.1c3 18.1-9.2 35.3-27.4 38.3-1.7.3-3.5.4-5.3.5zm-75.3-73 75 40c.1.1.3.1.4 0 .2-.1.3-.3.2-.5l-14.4-84.8 60.8-60.1c.1-.1.1-.2.1-.4s-.2-.3-.4-.3l-83.9-12.4-37.5-77.2c-.1-.2-.4-.3-.6-.1-.1 0-.1.1-.2.2l-37.5 77.1-83.9 12.4c-.1 0-.2.1-.3.2-.1.2 0 .3.1.5l60.7 60.1-14.3 84.8c0 .1.1.3.2.4.2.1.4.1.5 0z"/></g></g></svg>